<svg width="44" height="44" fill="none" xmlns="http://www.w3.org/2000/svg"><g filter="url(#filter0_d)"><circle cx="22" cy="22" r="17" fill="#fff"/></g><path d="M23.031 11c-4.55 0-8.25 3.7-8.25 8.25v1.213l-1.99 3.979a.69.69 0 00.615.995h1.375v3.311c0 .405.176.786.486 1.047.309.261.71.375 1.112.308l2.527-.418v2.628a.687.687 0 00.8.678l8.25-1.376a.687.687 0 00.575-.677V26.7c0-.957.47-1.724.865-2.201A8.249 8.249 0 0023.031 11z" fill="#231651"/><defs><filter id="filter0_d" x="0" y="0" width="44" height="44" filterUnits="userSpaceOnUse" color-interpolation-filters="sRGB"><feFlood flood-opacity="0" result="BackgroundImageFix"/><feColorMatrix in="SourceAlpha" values="0 0 0 0 0 0 0 0 0 0 0 0 0 0 0 0 0 0 127 0" result="hardAlpha"/><feOffset/><feGaussianBlur stdDeviation="2.5"/><feColorMatrix values="0 0 0 0 0 0 0 0 0 0 0 0 0 0 0 0 0 0 0.25 0"/><feBlend in2="BackgroundImageFix" result="effect1_dropShadow"/><feBlend in="SourceGraphic" in2="effect1_dropShadow" result="shape"/></filter></defs></svg>